/* XPM */
static char *east_xpm[] = {
"32 32 6 1",
". c #444B3F",
"+ c #6A725F",
"@ c #8A927F",
"# c #9CB58A",
"* c #466B3A",
"  c #2A3027",
"................................",
".++..++..++..++..++..++..++..++.",
".+@@+.+@@+.+@@+.+@@+.+@@+.+@@+..",
".++..++..++..++..++..++..++..++.",
".+@@+.+@@+.+@@+.+@@+.+@@+.+@@+..",
".++..++..++..++..++..++..++..++.",
".+@@+.+@@+.+@@+.+@@+.+@@+.+@@+..",
".++..++..++..++..++..++..++..++.",
".****....****....****....****...",
".****....****....****....****...",
".****....****....****....****...",
".++..++..++..++..++..++..++..++.",
".+@@+.+@@+.+@@+.+@@+.+@@+.+@@+..",
".++..++..++..++..++..++..++..++.",
".+@@+.+@@+.+@@+.+@@+.+@@+.+@@+..",
".++..++..++..++..++..++..++..++.",
".****....****....****....****...",
".****....****....****....****...",
".****....****....****....****...",
".++..++..++..++..++..++..++..++.",
".+@@+.+@@+.+@@+.+@@+.+@@+.+@@+..",
".++..++..++..++..++..++..++..++.",
".+@@+.+@@+.+@@+.+@@+.+@@+.+@@+..",
".++..++..++..++..++..++..++..++.",
"................................",
"................................",
"................................",
"................................",
"................................",
"................................",
"................................",
"................................"
};
